<svg xmlns="http://www.w3.org/2000/svg" viewBox="0 0 100 100" width="100" height="100">
  <defs>
    <linearGradient id="g" x1="20" y1="10" x2="80" y2="92" gradientUnits="userSpaceOnUse">
      <stop offset="0" stop-color="#FCEFD6"/>
      <stop offset="0.45" stop-color="#F5C97A"/>
      <stop offset="1" stop-color="#E09A45"/>
    </linearGradient>
  </defs>
  <rect width="100" height="100" rx="22" fill="#05070E"/>
  <path d="M50 12 C53.5 34 66 46.5 88 50 C66 53.5 53.5 66 50 88 C46.5 66 34 53.5 12 50 C34 46.5 46.5 34 50 12 Z"
    fill="none" stroke="url(#g)" stroke-width="4" stroke-linejoin="round"/>
  <path d="M50 34 C51.3 44 56 48.7 66 50 C56 51.3 51.3 56 50 66 C48.7 56 44 51.3 34 50 C44 48.7 48.7 44 50 34 Z"
    fill="#FCEFD6"/>
</svg>
